<svg xmlns="http://www.w3.org/2000/svg" fill="#FFF" width="24" height="24" xml:space="preserve"><path d="M12 5c-.6 0-1-.4-1-1V1c0-.6.4-1 1-1s1 .4 1 1v3c0 .6-.4 1-1 1zM12 24c-.6 0-1-.4-1-1v-3c0-.6.4-1 1-1s1 .4 1 1v3c0 .6-.4 1-1 1zM4 13H1c-.6 0-1-.4-1-1s.4-1 1-1h3c.6 0 1 .4 1 1s-.4 1-1 1zM23 13h-3c-.6 0-1-.4-1-1s.4-1 1-1h3c.6 0 1 .4 1 1s-.4 1-1 1zM18.9 9c-.3 0-.7-.2-.9-.5-.3-.5-.1-1.1.4-1.4L21 5.6c.5-.3 1.1-.1 1.4.4.3.5.1 1.1-.4 1.4l-2.6 1.5c-.1.1-.3.1-.5.1zM2.5 18.5c-.3 0-.7-.2-.9-.5-.3-.5-.1-1.1.4-1.4l2.6-1.5c.5-.3 1.1-.1 1.4.4.3.5.1 1.1-.4 1.4L3 18.4c-.2.1-.4.1-.5.1zM16 6.1c-.2 0-.3 0-.5-.1-.5-.3-.6-.9-.4-1.4L16.6 2c.3-.5.9-.6 1.4-.4.5.3.6.9.4 1.4l-1.5 2.6c-.2.3-.6.5-.9.5zM6.5 22.5c-.2 0-.3 0-.5-.1-.5-.3-.6-.9-.4-1.4l1.5-2.6c.3-.4.9-.6 1.4-.3.5.3.6.9.4 1.4L7.4 22c-.2.3-.6.5-.9.5zM5.1 9c-.2 0-.4 0-.5-.1L2 7.4c-.5-.3-.7-.9-.4-1.4.3-.5.9-.6 1.4-.4l2.6 1.5c.5.3.6.9.3 1.4-.1.3-.5.5-.8.5zM21.5 18.5c-.2 0-.3 0-.5-.1l-2.6-1.5c-.5-.3-.6-.9-.4-1.4.3-.5.9-.6 1.4-.4l2.6 1.5c.5.3.6.9.4 1.4-.2.3-.5.5-.9.5zM8 6.1c-.3 0-.7-.2-.9-.5L5.6 3c-.2-.5-.1-1.1.4-1.4.5-.3 1.1-.1 1.4.4l1.5 2.6c.2.5.1 1.1-.4 1.3-.2.1-.3.2-.5.2zM17.5 22.5c-.3 0-.7-.2-.9-.5l-1.5-2.6c-.3-.5-.1-1.1.4-1.4.5-.3 1.1-.1 1.4.4l1.5 2.6c.3.5.1 1.1-.4 1.4-.2.1-.3.1-.5.1z"/></svg>